<?xml version="1.0" standalone="no"?>
<!DOCTYPE svg PUBLIC "-//W3C//DTD SVG 20010904//EN"
 "http://www.w3.org/TR/2001/REC-SVG-20010904/DTD/svg10.dtd">
<svg version="1.0" xmlns="http://www.w3.org/2000/svg"
 width="1847.000000pt" height="1847.000000pt" viewBox="0 0 1847.000000 1847.000000"
 preserveAspectRatio="xMidYMid meet">

<g transform="translate(0.000000,1847.000000) scale(0.100000,-0.100000)"
fill="#000000" stroke="none">
<path d="M6590 13240 c-558 -53 -958 -217 -1261 -520 -255 -255 -395 -559
-451 -980 -18 -139 -15 -499 5 -640 15 -104 55 -289 72 -332 7 -17 -31 -18
-703 -18 l-709 0 -127 162 c-108 138 -125 164 -109 170 10 3 79 25 153 48 573
176 839 533 791 1064 -28 325 -84 463 -263 652 -185 196 -415 310 -731 364
-115 19 -162 20 -1288 20 l-1169 0 0 -1770 0 -1770 645 0 645 0 2 573 3 574
550 -574 550 -573 1118 0 1117 0 0 180 0 179 98 -66 c245 -167 569 -281 932
-328 176 -23 494 -30 677 -16 579 45 1004 212 1309 516 204 202 327 419 404
710 43 160 60 287 67 490 19 580 -139 1038 -472 1369 -262 260 -661 436 -1135
501 -137 19 -581 28 -720 15z m-3544 -926 c66 -35 99 -67 123 -123 48 -113 47
-284 -2 -381 -19 -36 -35 -51 -82 -75 l-59 -30 -468 -3 -468 -3 0 321 0 320
454 0 453 0 49 -26z m4024 -59 c275 -41 400 -139 500 -389 85 -212 105 -445
61 -699 -12 -70 -31 -152 -41 -182 -38 -110 -141 -231 -254 -296 -120 -69
-315 -106 -515 -96 -311 15 -478 109 -586 331 -72 147 -96 258 -102 463 -6
192 4 292 44 418 80 257 267 414 538 454 95 14 252 12 355 -4z"/>
<path d="M15460 13240 c-426 -40 -767 -150 -1048 -337 -122 -81 -313 -273
-392 -393 -203 -311 -283 -613 -284 -1070 -1 -362 49 -619 170 -879 102 -219
295 -446 490 -578 248 -168 567 -280 940 -329 163 -22 626 -25 789 -6 590 69
1033 285 1310 638 250 317 371 742 352 1239 -20 522 -175 907 -486 1208 -275
265 -655 431 -1131 492 -146 19 -569 28 -710 15z m481 -985 c162 -24 284 -79
366 -163 58 -59 145 -238 177 -363 42 -165 51 -282 32 -444 -32 -276 -72 -381
-191 -500 -111 -111 -230 -163 -426 -186 -209 -24 -435 6 -570 77 -123 65
-219 194 -277 374 -67 207 -76 475 -22 700 68 282 249 454 534 505 96 18 261
18 377 0z"/>
<path d="M9470 11455 l0 -1765 1243 0 c701 0 1305 5 1387 10 509 34 771 127
977 344 120 125 182 282 203 505 21 229 -24 390 -156 562 -138 179 -413 333
-655 365 l-52 7 89 32 c118 42 277 124 356 184 167 127 244 265 269 487 34
289 -94 627 -299 790 -116 92 -320 174 -520 208 -191 33 -312 36 -1574 36
l-1268 0 0 -1765z m2171 872 c76 -39 114 -88 131 -168 24 -115 -26 -223 -132
-286 l-54 -33 -443 0 -443 0 0 260 0 260 439 0 439 0 63 -33z m64 -1290 c133
-38 229 -107 262 -185 23 -54 19 -163 -7 -217 -28 -59 -108 -130 -184 -166
-117 -55 -159 -59 -638 -59 l-438 0 0 326 0 325 473 -3 c410 -4 480 -6 532
-21z"/>
<path d="M700 8350 l0 -530 367 -2 367 -3 405 -1237 405 -1238 578 0 c318 0
578 1 578 3 1 1 83 333 184 737 l184 735 16 -55 c9 -30 108 -361 220 -735
l203 -680 580 -3 579 -2 434 1757 c238 967 435 1764 438 1771 3 9 -115 12
-571 12 l-575 0 -5 -22 c-3 -13 -74 -345 -158 -738 -83 -393 -155 -718 -158
-722 -4 -5 -115 327 -246 737 l-240 745 -532 0 -532 0 -11 -37 c-6 -21 -100
-360 -208 -754 l-197 -715 -239 753 -239 753 -814 0 -813 0 0 -530z"/>
<path d="M6487 7122 c-317 -966 -577 -1763 -577 -1770 0 -9 136 -12 634 -12
594 0 634 1 641 18 6 14 100 284 197 565 l20 57 518 0 c484 0 518 -1 525 -17
5 -15 149 -425 202 -580 l15 -43 669 0 c528 0 669 3 669 13 0 6 -264 803 -587
1769 l-588 1758 -880 0 -881 0 -577 -1758z m1693 255 c122 -368 220 -670 218
-673 -3 -2 -216 -3 -475 -2 l-469 3 245 678 c135 372 248 674 252 670 3 -5
107 -309 229 -676z"/>
<path d="M10350 7110 l0 -1770 640 0 640 0 2 575 3 574 550 -574 550 -574 703
0 702 -1 0 530 0 530 -528 0 -527 0 -115 147 c-63 81 -121 155 -128 165 -11
15 -8 18 30 28 105 26 271 85 364 129 234 112 384 254 480 456 69 146 78 193
78 400 0 234 -26 400 -80 508 -114 226 -293 403 -517 507 -104 49 -184 76
-322 108 l-110 26 -1207 3 -1208 4 0 -1771z m2237 854 c29 -14 67 -43 87 -64
60 -67 88 -208 67 -336 -17 -96 -44 -140 -111 -178 l-55 -31 -472 -3 -473 -3
0 321 0 320 453 0 453 0 51 -26z"/>
<path d="M15235 8873 c-84 -11 -204 -47 -273 -80 -116 -57 -232 -176 -295
-303 -25 -52 -58 -140 -73 -195 -36 -135 -39 -344 -6 -476 70 -284 246 -567
542 -873 63 -65 158 -156 211 -202 187 -161 223 -251 120 -304 -69 -34 -152
-40 -623 -40 l-458 0 0 -530 0 -530 953 0 c1033 0 981 -2 1162 56 293 96 473
285 530 556 22 104 19 308 -6 431 -70 346 -297 685 -713 1066 -166 151 -216
213 -216 266 0 38 20 58 80 82 41 16 99 18 593 21 l547 3 0 530 0 529 -1022
-1 c-563 -1 -1036 -4 -1053 -6z"/>
</g>
</svg>
